# xmcd
#
# Track frame offsets: 
#        150
#        9677
#        19312
#        29487
#        41929
#        55016
#        68867
#        79524
#        87741
#        98581
#        111528
#        122229
#        133289
#        142643
#        154009
#        165432
#        175590
#        187186
#        199090
#        212197
#        223025
#        235883
#        244401
#        254659
#        262151
#        270524
#        280502
#        294605
#        307116
#        315980
#
# Disc length: 4327 seconds
#
# Revision: 0
# Processed by: cddbd v1.5.2PL0 Copyright (c) Steve Scherf et al.
# Submitted via: ExactAudioCopy v1.0b3
#
DISCID=c810e51e
DTITLE=Charlie Rich - Lonely Weekends - The 1958 - 1962 SUN and PHILLI
DTITLE=PS INTERNATIONAL Recordings
DYEAR=1900
DGENRE=
TTITLE0=Whirlwind
TTITLE1=Lonely Weekends
TTITLE2=Everything I Do Is Wrong
TTITLE3=Big Man
TTITLE4=Midnite Blues
TTITLE5=Sittin' And Thinkin'
TTITLE6=Finally Found Out
TTITLE7=Rebound
TTITLE8=Gonna Be Waitin'
TTITLE9=Easy Money
TTITLE10=Just A Little Bit Sweet
TTITLE11=C.C. Rider
TTITLE12=Philadelphia Baby
TTITLE13=Break Up
TTITLE14=On My Knees
TTITLE15=Red Man
TTITLE16=School Days
TTITLE17=There's Another Place I Can't Go
TTITLE18=Juanita
TTITLE19=Who Will The Next Fool Be
TTITLE20=Apple Blossom Time
TTITLE21=That's Rich
TTITLE22=Come Back
TTITLE23=Baby, I Need You
TTITLE24=Donna Lee
TTITLE25=Goodbye, Mary Ann
TTITLE26=Time And Again
TTITLE27=Gentle As A Lamb
TTITLE28=Right Behind You Baby
TTITLE29=Thanks A Lot
EXTD=
EXTT0=
EXTT1=
EXTT2=
EXTT3=
EXTT4=
EXTT5=
EXTT6=
EXTT7=
EXTT8=
EXTT9=
EXTT10=
EXTT11=
EXTT12=
EXTT13=
EXTT14=
EXTT15=
EXTT16=
EXTT17=
EXTT18=
EXTT19=
EXTT20=
EXTT21=
EXTT22=
EXTT23=
EXTT24=
EXTT25=
EXTT26=
EXTT27=
EXTT28=
EXTT29=
PLAYORDER=
